<svg width="22" height="40" viewBox="0 0 22 40" fill="none" xmlns="http://www.w3.org/2000/svg">
<path d="M15.9812 17.8898L7.72943 15.4828C6.77437 15.2086 6.10964 14.3174 6.10964 13.3271C6.10964 12.0855 7.11819 11.0801 8.3636 11.0801H13.4293C14.3614 11.0801 15.2783 11.3619 16.0423 11.8799C16.5084 12.1922 17.1349 12.116 17.5322 11.7275L20.1911 9.1377C20.7336 8.61211 20.6572 7.73613 20.0536 7.27148C18.1817 5.80898 15.8437 4.99395 13.4445 4.98633V1.33008C13.4445 0.659766 12.8944 0.111328 12.2221 0.111328H9.7771C9.10473 0.111328 8.55461 0.659766 8.55461 1.33008V4.98633H8.3636C3.49658 4.98633 -0.415372 9.15293 0.0354191 14.0965C0.356321 17.608 3.04579 20.4645 6.43818 21.4547L14.2697 23.7398C15.2248 24.0217 15.8895 24.9053 15.8895 25.8955C15.8895 27.1371 14.881 28.1426 13.6356 28.1426H8.56989C7.63775 28.1426 6.72088 27.8607 5.95683 27.3428C5.49076 27.0305 4.86423 27.1066 4.46693 27.4951L1.80802 30.085C1.26554 30.6105 1.34195 31.4865 1.94555 31.9512C3.81748 33.4137 6.15548 34.2287 8.55461 34.2363V37.8926C8.55461 38.5629 9.10473 39.1113 9.7771 39.1113H12.2221C12.8944 39.1113 13.4445 38.5629 13.4445 37.8926V34.2211C17.005 34.1525 20.3439 32.0426 21.5206 28.6834C23.1633 23.9912 20.4051 19.1771 15.9812 17.8898Z" fill="white"/>
</svg>
