<svg width="38" height="32" viewBox="0 0 38 32" fill="none" xmlns="http://www.w3.org/2000/svg">
<path d="M15.1424 16.4476C15.5135 16.8187 16.115 16.8187 16.4861 16.4476L17.1576 15.776C17.5287 15.405 17.5287 14.8035 17.1576 14.4324L15.0367 12.3121L17.157 10.1912C17.5281 9.82014 17.5281 9.21867 17.157 8.84758L16.4855 8.17605C16.1144 7.80495 15.5129 7.80495 15.1418 8.17605L11.6779 11.64C11.3068 12.0111 11.3068 12.6125 11.6779 12.9836L15.1424 16.4476ZM20.843 15.7766L21.5145 16.4482C21.8856 16.8193 22.4871 16.8193 22.8582 16.4482L26.3221 12.9842C26.6932 12.6131 26.6932 12.0117 26.3221 11.6406L22.8582 8.17664C22.4871 7.80555 21.8856 7.80555 21.5145 8.17664L20.843 8.84817C20.4719 9.21927 20.4719 9.82073 20.843 10.1918L22.9633 12.3121L20.843 14.433C20.4719 14.8041 20.4719 15.4055 20.843 15.7766ZM37.05 25.6121H22.6539C22.61 26.7883 21.7805 27.5121 20.71 27.5121H17.1C15.9903 27.5121 15.1394 26.4748 15.1543 25.6121H0.95C0.4275 25.6121 0 26.0396 0 26.5621V27.5121C0 29.6021 1.71 31.3121 3.8 31.3121H34.2C36.29 31.3121 38 29.6021 38 27.5121V26.5621C38 26.0396 37.5725 25.6121 37.05 25.6121ZM34.2 3.76211C34.2 2.19461 32.9175 0.912109 31.35 0.912109H6.65C5.0825 0.912109 3.8 2.19461 3.8 3.76211V23.7121H34.2V3.76211ZM30.4 19.9121H7.6V4.71211H30.4V19.9121Z" fill="white"/>
</svg>
