<svg width="38" height="35" viewBox="0 0 38 35" fill="none" xmlns="http://www.w3.org/2000/svg">
<path d="M18.1611 17.1379C18.6229 17.626 19.375 17.626 19.8433 17.1379L27.0273 9.60427C29.1119 7.41411 28.9932 3.78584 26.6579 1.7672C24.6261 0.00583883 21.5981 0.322488 19.7378 2.27516L18.999 3.04699L18.2667 2.28175C16.4064 0.322488 13.3784 0.00583883 11.3466 1.7672C9.01791 3.78584 8.89256 7.41411 10.9772 9.60427L18.1611 17.1379ZM37.292 22.257C36.5136 21.5512 35.2998 21.5974 34.4818 22.257L28.3863 27.1321C27.6408 27.7324 26.7107 28.0557 25.7475 28.0557H17.9435C17.3629 28.0557 16.888 27.5807 16.888 27.0002C16.888 26.4197 17.3629 25.9447 17.9435 25.9447H23.1088C24.1577 25.9447 25.134 25.2256 25.3055 24.1899C25.5232 22.8705 24.5073 21.7227 23.2209 21.7227H12.666C10.8848 21.7227 9.16304 22.3362 7.7777 23.4577L4.71016 25.9447H1.0555C0.474974 25.9447 0 26.4197 0 27.0002V33.3332C0 33.9137 0.474974 34.3887 1.0555 34.3887H24.5931C25.5496 34.3887 26.4798 34.0654 27.2318 33.4651L37.2063 25.4829C38.209 24.6847 38.2882 23.1542 37.292 22.257Z" fill="white"/>
</svg>
